<mxfile host="app.diagrams.net" modified="2022-10-19T23:08:22.417Z" agent="5.0 (Linux; Android 12; SM-P613) AppleWebKit/537.36 (KHTML, like Gecko) Chrome/106.0.0.0 Safari/537.36" etag="TENwvPNIYitT8ATZP97s" version="20.4.1" type="github">
  <diagram name="Page-1" id="e56a1550-8fbb-45ad-956c-1786394a9013">
    <mxGraphModel dx="597" dy="368" grid="1" gridSize="10" guides="1" tooltips="1" connect="1" arrows="1" fold="1" page="1" pageScale="1" pageWidth="1100" pageHeight="850" background="none" math="0" shadow="0">
      <root>
        <mxCell id="0" />
        <mxCell id="1" parent="0" />
        <mxCell id="l3FVeVEMqfz4vubW2B3G-11" value="&lt;font face=&quot;Lucida Console&quot; style=&quot;font-size: 14px;&quot;&gt;Derivate&amp;nbsp; Attribute&lt;/font&gt;" style="ellipse;whiteSpace=wrap;html=1;align=center;dashed=1;fontSize=24;" vertex="1" parent="1">
          <mxGeometry x="42.5" y="160" width="117.5" height="30" as="geometry" />
        </mxCell>
        <mxCell id="l3FVeVEMqfz4vubW2B3G-2" value="&lt;font style=&quot;font-size: 24px;&quot;&gt;ENTITA` RELAZIONI&lt;/font&gt;" style="text;html=1;strokeColor=none;fillColor=none;align=center;verticalAlign=middle;whiteSpace=wrap;rounded=0;" vertex="1" parent="1">
          <mxGeometry x="10" width="240" height="30" as="geometry" />
        </mxCell>
        <mxCell id="l3FVeVEMqfz4vubW2B3G-5" value="&lt;font face=&quot;Verdana&quot;&gt;Entity Set&lt;/font&gt;" style="whiteSpace=wrap;html=1;align=center;fontSize=24;" vertex="1" parent="1">
          <mxGeometry x="220" y="90" width="140" height="70" as="geometry" />
        </mxCell>
        <mxCell id="l3FVeVEMqfz4vubW2B3G-12" value="&lt;font face=&quot;Lucida Console&quot; style=&quot;font-size: 14px;&quot;&gt;Multi value&lt;/font&gt;" style="ellipse;shape=doubleEllipse;margin=3;whiteSpace=wrap;html=1;align=center;fontSize=24;" vertex="1" parent="1">
          <mxGeometry x="40" y="120" width="120" height="30" as="geometry" />
        </mxCell>
        <mxCell id="l3FVeVEMqfz4vubW2B3G-13" value="&lt;font face=&quot;Lucida Console&quot; style=&quot;font-size: 14px;&quot;&gt;Attribute&lt;/font&gt;" style="ellipse;whiteSpace=wrap;html=1;align=center;fontSize=24;" vertex="1" parent="1">
          <mxGeometry x="40" y="80" width="120" height="30" as="geometry" />
        </mxCell>
        <mxCell id="l3FVeVEMqfz4vubW2B3G-36" value="" style="group" vertex="1" connectable="0" parent="1">
          <mxGeometry x="410" y="120" width="203" height="130" as="geometry" />
        </mxCell>
        <mxCell id="l3FVeVEMqfz4vubW2B3G-6" value="&lt;font style=&quot;font-size: 12px;&quot;&gt;Composite&lt;br&gt;Attribute&lt;/font&gt;" style="ellipse;whiteSpace=wrap;html=1;align=center;fontSize=24;movable=1;resizable=1;rotatable=1;deletable=1;editable=1;connectable=1;" vertex="1" parent="l3FVeVEMqfz4vubW2B3G-36">
          <mxGeometry y="29.545454545454547" width="100" height="70.9090909090909" as="geometry" />
        </mxCell>
        <mxCell id="l3FVeVEMqfz4vubW2B3G-14" value="&lt;font style=&quot;font-size: 12px;&quot;&gt;Attribute&lt;/font&gt;" style="ellipse;whiteSpace=wrap;html=1;align=center;fontSize=24;movable=1;resizable=1;rotatable=1;deletable=1;editable=1;connectable=1;" vertex="1" parent="l3FVeVEMqfz4vubW2B3G-36">
          <mxGeometry x="140" y="94.54545454545455" width="60" height="35.45454545454545" as="geometry" />
        </mxCell>
        <mxCell id="l3FVeVEMqfz4vubW2B3G-15" value="&lt;font style=&quot;font-size: 12px;&quot;&gt;Attribute&lt;/font&gt;" style="ellipse;whiteSpace=wrap;html=1;align=center;fontSize=24;movable=1;resizable=1;rotatable=1;deletable=1;editable=1;connectable=1;" vertex="1" parent="l3FVeVEMqfz4vubW2B3G-36">
          <mxGeometry x="138" y="47.27272727272727" width="65" height="35.45454545454545" as="geometry" />
        </mxCell>
        <mxCell id="l3FVeVEMqfz4vubW2B3G-16" value="&lt;font style=&quot;font-size: 12px;&quot;&gt;Attribute&lt;/font&gt;" style="ellipse;whiteSpace=wrap;html=1;align=center;fontSize=24;movable=1;resizable=1;rotatable=1;deletable=1;editable=1;connectable=1;" vertex="1" parent="l3FVeVEMqfz4vubW2B3G-36">
          <mxGeometry x="138" width="60" height="35.45454545454545" as="geometry" />
        </mxCell>
        <mxCell id="l3FVeVEMqfz4vubW2B3G-18" value="" style="endArrow=none;html=1;rounded=0;fontSize=24;entryX=0;entryY=0.5;entryDx=0;entryDy=0;movable=1;resizable=1;rotatable=1;deletable=1;editable=1;connectable=1;exitX=1;exitY=0.5;exitDx=0;exitDy=0;" edge="1" parent="l3FVeVEMqfz4vubW2B3G-36" source="l3FVeVEMqfz4vubW2B3G-6" target="l3FVeVEMqfz4vubW2B3G-16">
          <mxGeometry relative="1" as="geometry">
            <mxPoint x="120" y="65" as="sourcePoint" />
            <mxPoint x="220" y="260" as="targetPoint" />
          </mxGeometry>
        </mxCell>
        <mxCell id="l3FVeVEMqfz4vubW2B3G-19" value="" style="endArrow=none;html=1;rounded=0;fontSize=24;entryX=0;entryY=0.5;entryDx=0;entryDy=0;movable=1;resizable=1;rotatable=1;deletable=1;editable=1;connectable=1;exitX=1;exitY=0.5;exitDx=0;exitDy=0;" edge="1" parent="l3FVeVEMqfz4vubW2B3G-36" source="l3FVeVEMqfz4vubW2B3G-6" target="l3FVeVEMqfz4vubW2B3G-14">
          <mxGeometry relative="1" as="geometry">
            <mxPoint x="80" y="70.9090909090909" as="sourcePoint" />
            <mxPoint x="170" y="212.72727272727275" as="targetPoint" />
          </mxGeometry>
        </mxCell>
        <mxCell id="l3FVeVEMqfz4vubW2B3G-22" value="" style="endArrow=none;html=1;rounded=0;fontSize=24;entryX=0;entryY=0.5;entryDx=0;entryDy=0;movable=1;resizable=1;rotatable=1;deletable=1;editable=1;connectable=1;" edge="1" parent="l3FVeVEMqfz4vubW2B3G-36" source="l3FVeVEMqfz4vubW2B3G-6" target="l3FVeVEMqfz4vubW2B3G-15">
          <mxGeometry relative="1" as="geometry">
            <mxPoint x="120" y="70.9090909090909" as="sourcePoint" />
            <mxPoint x="220" y="260" as="targetPoint" />
            <Array as="points" />
          </mxGeometry>
        </mxCell>
        <mxCell id="l3FVeVEMqfz4vubW2B3G-40" value="" style="endArrow=none;html=1;rounded=0;fontFamily=Verdana;fontSize=12;exitX=1;exitY=0.5;exitDx=0;exitDy=0;entryX=0;entryY=0.25;entryDx=0;entryDy=0;" edge="1" parent="1" source="l3FVeVEMqfz4vubW2B3G-13" target="l3FVeVEMqfz4vubW2B3G-5">
          <mxGeometry relative="1" as="geometry">
            <mxPoint x="330" y="220" as="sourcePoint" />
            <mxPoint x="280" y="290" as="targetPoint" />
          </mxGeometry>
        </mxCell>
        <mxCell id="l3FVeVEMqfz4vubW2B3G-41" value="" style="endArrow=none;html=1;rounded=0;fontFamily=Verdana;fontSize=12;exitX=1;exitY=0.5;exitDx=0;exitDy=0;entryX=0;entryY=0.5;entryDx=0;entryDy=0;" edge="1" parent="1" source="l3FVeVEMqfz4vubW2B3G-12" target="l3FVeVEMqfz4vubW2B3G-5">
          <mxGeometry relative="1" as="geometry">
            <mxPoint x="330" y="220" as="sourcePoint" />
            <mxPoint x="490" y="220" as="targetPoint" />
          </mxGeometry>
        </mxCell>
        <mxCell id="l3FVeVEMqfz4vubW2B3G-42" value="" style="endArrow=none;html=1;rounded=0;fontFamily=Verdana;fontSize=12;exitX=1;exitY=0.5;exitDx=0;exitDy=0;entryX=0;entryY=0.75;entryDx=0;entryDy=0;" edge="1" parent="1" source="l3FVeVEMqfz4vubW2B3G-11" target="l3FVeVEMqfz4vubW2B3G-5">
          <mxGeometry relative="1" as="geometry">
            <mxPoint x="330" y="220" as="sourcePoint" />
            <mxPoint x="490" y="220" as="targetPoint" />
          </mxGeometry>
        </mxCell>
        <mxCell id="l3FVeVEMqfz4vubW2B3G-43" value="" style="endArrow=none;html=1;rounded=0;fontFamily=Verdana;fontSize=12;exitX=1;exitY=0.5;exitDx=0;exitDy=0;entryX=0;entryY=0.5;entryDx=0;entryDy=0;" edge="1" parent="1" source="l3FVeVEMqfz4vubW2B3G-5" target="l3FVeVEMqfz4vubW2B3G-6">
          <mxGeometry relative="1" as="geometry">
            <mxPoint x="330" y="220" as="sourcePoint" />
            <mxPoint x="490" y="220" as="targetPoint" />
          </mxGeometry>
        </mxCell>
        <mxCell id="l3FVeVEMqfz4vubW2B3G-44" value="" style="endArrow=none;html=1;rounded=0;fontFamily=Verdana;fontSize=12;exitX=1;exitY=0.5;exitDx=0;exitDy=0;entryX=0;entryY=0.5;entryDx=0;entryDy=0;" edge="1" parent="1" source="l3FVeVEMqfz4vubW2B3G-5" target="l3FVeVEMqfz4vubW2B3G-7">
          <mxGeometry relative="1" as="geometry">
            <mxPoint x="330" y="220" as="sourcePoint" />
            <mxPoint x="490" y="220" as="targetPoint" />
          </mxGeometry>
        </mxCell>
        <mxCell id="l3FVeVEMqfz4vubW2B3G-45" value="" style="endArrow=none;html=1;rounded=0;fontFamily=Verdana;fontSize=12;exitX=1;exitY=0.5;exitDx=0;exitDy=0;entryX=0;entryY=0.5;entryDx=0;entryDy=0;" edge="1" parent="1" source="l3FVeVEMqfz4vubW2B3G-54" target="l3FVeVEMqfz4vubW2B3G-8">
          <mxGeometry relative="1" as="geometry">
            <mxPoint x="340" y="130" as="sourcePoint" />
            <mxPoint x="520" y="320" as="targetPoint" />
          </mxGeometry>
        </mxCell>
        <mxCell id="l3FVeVEMqfz4vubW2B3G-72" value="" style="edgeStyle=orthogonalEdgeStyle;rounded=0;orthogonalLoop=1;jettySize=auto;html=1;fontFamily=Verdana;fontSize=12;" edge="1" parent="1" source="l3FVeVEMqfz4vubW2B3G-48" target="l3FVeVEMqfz4vubW2B3G-54">
          <mxGeometry relative="1" as="geometry" />
        </mxCell>
        <mxCell id="l3FVeVEMqfz4vubW2B3G-48" value="Relationship" style="shape=rhombus;perimeter=rhombusPerimeter;whiteSpace=wrap;html=1;align=center;fontFamily=Verdana;fontSize=12;" vertex="1" parent="1">
          <mxGeometry x="230" y="250" width="120" height="60" as="geometry" />
        </mxCell>
        <mxCell id="l3FVeVEMqfz4vubW2B3G-50" value="Relationship" style="shape=rhombus;double=1;perimeter=rhombusPerimeter;whiteSpace=wrap;html=1;align=center;fontFamily=Verdana;fontSize=12;" vertex="1" parent="1">
          <mxGeometry x="70" y="350" width="120" height="60" as="geometry" />
        </mxCell>
        <mxCell id="l3FVeVEMqfz4vubW2B3G-54" value="Entity Set Debole&lt;br&gt;no Pkey, Discriminante" style="shape=ext;margin=3;double=1;whiteSpace=wrap;html=1;align=center;fontFamily=Verdana;fontSize=12;" vertex="1" parent="1">
          <mxGeometry x="220" y="355" width="140" height="50" as="geometry" />
        </mxCell>
        <mxCell id="l3FVeVEMqfz4vubW2B3G-7" value="&lt;font face=&quot;Verdana&quot; style=&quot;font-size: 12px;&quot;&gt;&lt;b style=&quot;&quot;&gt;&lt;i style=&quot;&quot;&gt;Pkey&amp;nbsp;&lt;/i&gt;&lt;/b&gt;&lt;/font&gt;" style="ellipse;whiteSpace=wrap;html=1;align=center;fontStyle=4;fontSize=24;" vertex="1" parent="1">
          <mxGeometry x="420" y="80" width="90" height="40" as="geometry" />
        </mxCell>
        <mxCell id="l3FVeVEMqfz4vubW2B3G-8" value="&lt;span style=&quot;border-bottom: 1px dotted&quot;&gt;&lt;font face=&quot;Verdana&quot; style=&quot;font-size: 12px;&quot;&gt;Discriminant&lt;/font&gt;&lt;/span&gt;" style="ellipse;whiteSpace=wrap;html=1;align=center;fontSize=24;" vertex="1" parent="1">
          <mxGeometry x="390" y="360" width="100" height="40" as="geometry" />
        </mxCell>
        <mxCell id="l3FVeVEMqfz4vubW2B3G-73" value="" style="endArrow=none;html=1;rounded=0;fontFamily=Verdana;fontSize=12;exitX=0.5;exitY=1;exitDx=0;exitDy=0;entryX=0.5;entryY=0;entryDx=0;entryDy=0;" edge="1" parent="1" source="l3FVeVEMqfz4vubW2B3G-5" target="l3FVeVEMqfz4vubW2B3G-48">
          <mxGeometry relative="1" as="geometry">
            <mxPoint x="280" y="270" as="sourcePoint" />
            <mxPoint x="440" y="270" as="targetPoint" />
          </mxGeometry>
        </mxCell>
        <mxCell id="l3FVeVEMqfz4vubW2B3G-89" value="" style="group" vertex="1" connectable="0" parent="1">
          <mxGeometry x="360" y="240" width="130" height="80" as="geometry" />
        </mxCell>
        <mxCell id="l3FVeVEMqfz4vubW2B3G-78" value="" style="endArrow=classic;html=1;rounded=0;fontFamily=Verdana;fontSize=12;entryX=0;entryY=0.5;entryDx=0;entryDy=0;" edge="1" parent="l3FVeVEMqfz4vubW2B3G-89" target="l3FVeVEMqfz4vubW2B3G-79">
          <mxGeometry width="50" height="50" relative="1" as="geometry">
            <mxPoint y="30" as="sourcePoint" />
            <mxPoint x="100" y="40" as="targetPoint" />
          </mxGeometry>
        </mxCell>
        <mxCell id="l3FVeVEMqfz4vubW2B3G-79" value="m:1&amp;nbsp;" style="text;html=1;strokeColor=none;fillColor=none;align=center;verticalAlign=middle;whiteSpace=wrap;rounded=0;fontFamily=Verdana;fontSize=12;" vertex="1" parent="l3FVeVEMqfz4vubW2B3G-89">
          <mxGeometry x="80" y="22.5" width="30" height="15" as="geometry" />
        </mxCell>
        <mxCell id="l3FVeVEMqfz4vubW2B3G-80" value="" style="endArrow=classic;startArrow=classic;html=1;rounded=0;fontFamily=Verdana;fontSize=12;entryX=0;entryY=0.5;entryDx=0;entryDy=0;" edge="1" parent="l3FVeVEMqfz4vubW2B3G-89" target="l3FVeVEMqfz4vubW2B3G-81">
          <mxGeometry width="50" height="50" relative="1" as="geometry">
            <mxPoint y="50" as="sourcePoint" />
            <mxPoint x="70" y="70" as="targetPoint" />
            <Array as="points">
              <mxPoint x="40" y="50" />
            </Array>
          </mxGeometry>
        </mxCell>
        <mxCell id="l3FVeVEMqfz4vubW2B3G-81" value="1:1" style="text;html=1;strokeColor=none;fillColor=none;align=center;verticalAlign=middle;whiteSpace=wrap;rounded=0;fontFamily=Verdana;fontSize=12;" vertex="1" parent="l3FVeVEMqfz4vubW2B3G-89">
          <mxGeometry x="80" y="40" width="30" height="20" as="geometry" />
        </mxCell>
        <mxCell id="l3FVeVEMqfz4vubW2B3G-82" value="" style="endArrow=none;html=1;rounded=0;fontFamily=Verdana;fontSize=12;entryX=0;entryY=0.5;entryDx=0;entryDy=0;" edge="1" parent="l3FVeVEMqfz4vubW2B3G-89" target="l3FVeVEMqfz4vubW2B3G-83">
          <mxGeometry width="50" height="50" relative="1" as="geometry">
            <mxPoint y="70" as="sourcePoint" />
            <mxPoint x="70" y="100" as="targetPoint" />
          </mxGeometry>
        </mxCell>
        <mxCell id="l3FVeVEMqfz4vubW2B3G-83" value="m:m" style="text;html=1;strokeColor=none;fillColor=none;align=center;verticalAlign=middle;whiteSpace=wrap;rounded=0;fontFamily=Verdana;fontSize=12;" vertex="1" parent="l3FVeVEMqfz4vubW2B3G-89">
          <mxGeometry x="80" y="60" width="30" height="20" as="geometry" />
        </mxCell>
        <mxCell id="l3FVeVEMqfz4vubW2B3G-85" style="edgeStyle=orthogonalEdgeStyle;rounded=0;orthogonalLoop=1;jettySize=auto;html=1;exitX=0.5;exitY=1;exitDx=0;exitDy=0;fontFamily=Verdana;fontSize=12;" edge="1" parent="l3FVeVEMqfz4vubW2B3G-89" source="l3FVeVEMqfz4vubW2B3G-81" target="l3FVeVEMqfz4vubW2B3G-81">
          <mxGeometry relative="1" as="geometry" />
        </mxCell>
        <mxCell id="l3FVeVEMqfz4vubW2B3G-88" value="Cardinalita` Relazioni" style="text;html=1;strokeColor=none;fillColor=none;align=center;verticalAlign=middle;whiteSpace=wrap;rounded=0;fontFamily=Verdana;fontSize=12;" vertex="1" parent="l3FVeVEMqfz4vubW2B3G-89">
          <mxGeometry y="2.5" width="120" height="20" as="geometry" />
        </mxCell>
      </root>
    </mxGraphModel>
  </diagram>
</mxfile>
